<svg viewBox="0 0 16 16" xmlns="http://www.w3.org/2000/svg">
  <defs>
    <!-- Energy Core Star - Central power source -->
    <radialGradient id="energyCore" cx="0.4" cy="0.3" r="0.8">
      <stop offset="0%" style="stop-color:#fefce8"/>
      <stop offset="20%" style="stop-color:#fef3c7"/>
      <stop offset="50%" style="stop-color:#fbbf24"/>
      <stop offset="80%" style="stop-color:#f59e0b"/>
      <stop offset="100%" style="stop-color:#d97706"/>
    </radialGradient>
    
    <!-- Detection Array Star - Sonar and sensing -->
    <radialGradient id="detectionArray" cx="0.4" cy="0.3" r="0.8">
      <stop offset="0%" style="stop-color:#f0f9ff"/>
      <stop offset="25%" style="stop-color:#e0f2fe"/>
      <stop offset="50%" style="stop-color:#7dd3fc"/>
      <stop offset="75%" style="stop-color:#0ea5e9"/>
      <stop offset="100%" style="stop-color:#0369a1"/>
    </radialGradient>
    
    <!-- Research Telescope Star - Deep space exploration -->
    <radialGradient id="researchTelescope" cx="0.4" cy="0.3" r="0.8">
      <stop offset="0%" style="stop-color:#f5f3ff"/>
      <stop offset="25%" style="stop-color:#e4d4f4"/>
      <stop offset="50%" style="stop-color:#a855f7"/>
      <stop offset="75%" style="stop-color:#7c3aed"/>
      <stop offset="100%" style="stop-color:#5b21b6"/>
    </radialGradient>
    
    <!-- Data Archive Star - Knowledge storage -->
    <radialGradient id="dataArchive" cx="0.4" cy="0.3" r="0.8">
      <stop offset="0%" style="stop-color:#fef7ff"/>
      <stop offset="25%" style="stop-color:#fae8ff"/>
      <stop offset="50%" style="stop-color:#f472b6"/>
      <stop offset="75%" style="stop-color:#e879f9"/>
      <stop offset="100%" style="stop-color:#c026d3"/>
    </radialGradient>
    
    <!-- Containment Field -->
    <linearGradient id="containmentField" x1="0%" y1="0%" x2="100%" y2="100%">
      <stop offset="0%" style="stop-color:#e2e8f0"/>
      <stop offset="25%" style="stop-color:#cbd5e1"/>
      <stop offset="50%" style="stop-color:#94a3b8"/>
      <stop offset="75%" style="stop-color:#64748b"/>
      <stop offset="100%" style="stop-color:#475569"/>
    </linearGradient>
    
    <!-- Energy pulse effect -->
    <radialGradient id="energyPulse" cx="0.5" cy="0.5" r="0.5">
      <stop offset="0%" style="stop-color:#fbbf24" stop-opacity="0.8"/>
      <stop offset="70%" style="stop-color:#f59e0b" stop-opacity="0.4"/>
      <stop offset="100%" style="stop-color:#d97706" stop-opacity="0.1"/>
    </radialGradient>
  </defs>
  
  <!-- Background connection network -->
  <g stroke="#000000" stroke-width="0.15" fill="none" opacity="0.25">
    <path d="M8 8 L12.2 6.2"/>
    <path d="M8 8 L3.8 9.8"/>  
    <path d="M8 8 L8 12.8"/>
    <path d="M12.2 6.2 L8 12.8"/>
    <path d="M3.8 9.8 L8 12.8"/>
    <path d="M3.8 9.8 L12.2 6.2"/>
  </g>
  
  <!-- Outer containment field circle -->
  <circle cx="8" cy="8" r="7.5" fill="none" stroke="url(#containmentField)" stroke-width="0.5" opacity="0.8"/>
  <circle cx="8" cy="8" r="7.2" fill="none" stroke="#f8fafc" stroke-width="0.1" opacity="0.4"/>
  
  <!-- Data Archive Star - Foundation (Bottom) -->
  <g transform="translate(8,12.8)">
    <!-- Archive storage rays -->
    <path d="M0 -2.8 L0.4 -0.9 L0 0 L-0.4 -0.9 Z" fill="url(#dataArchive)"/>
    <path d="M2.8 0 L0.9 -0.4 L0 0 L0.9 0.4 Z" fill="url(#dataArchive)"/>
    <path d="M0 2.8 L-0.4 0.9 L0 0 L0.4 0.9 Z" fill="url(#dataArchive)"/>
    <path d="M-2.8 0 L-0.9 0.4 L0 0 L-0.9 -0.4 Z" fill="url(#dataArchive)"/>
    
    <!-- Storage matrix indicators -->
    <rect x="-1.5" y="-0.8" width="3" height="0.3" fill="#fae8ff" rx="0.15" opacity="0.7"/>
    <rect x="-1.2" y="-0.3" width="2.4" height="0.3" fill="#fae8ff" rx="0.15" opacity="0.7"/>
    <rect x="-0.9" y="0.2" width="1.8" height="0.3" fill="#fae8ff" rx="0.15" opacity="0.7"/>
    
    <!-- Central archive core -->
    <circle cx="0" cy="0" r="1.2" fill="#f472b6"/>
    <circle cx="0" cy="0" r="0.7" fill="#fef7ff"/>
    <circle cx="0" cy="0" r="0.3" fill="#e879f9"/>
  </g>
  
  <!-- Detection Array Star - Sonar System (Left) -->
  <g transform="translate(3.8,9.8)">
    <!-- Detection wave rays -->
    <path d="M0 -2.4 L0.35 -0.8 L0 0 L-0.35 -0.8 Z" fill="url(#detectionArray)"/>
    <path d="M2.4 0 L0.8 -0.35 L0 0 L0.8 0.35 Z" fill="url(#detectionArray)"/>
    <path d="M0 2.4 L-0.35 0.8 L0 0 L0.35 0.8 Z" fill="url(#detectionArray)"/>
    <path d="M-2.4 0 L-0.8 0.35 L0 0 L-0.8 -0.35 Z" fill="url(#detectionArray)"/>
    
    <!-- Sonar wave patterns -->
    <circle cx="0" cy="0" r="1.8" fill="none" stroke="#7dd3fc" stroke-width="0.15" opacity="0.6"/>
    <circle cx="0" cy="0" r="1.3" fill="none" stroke="#0ea5e9" stroke-width="0.1" opacity="0.7"/>
    <circle cx="0" cy="0" r="0.8" fill="none" stroke="#0369a1" stroke-width="0.08" opacity="0.8"/>
    
    <!-- Detection array core -->
    <circle cx="0" cy="0" r="0.9" fill="#7dd3fc"/>
    <circle cx="0" cy="0" r="0.5" fill="#f0f9ff"/>
    <circle cx="0" cy="0" r="0.2" fill="#0ea5e9"/>
    
    <!-- External sensor indicators -->
    <circle cx="-1.6" cy="0" r="0.08" fill="#0ea5e9"/>
    <circle cx="1.6" cy="0" r="0.08" fill="#0ea5e9"/>
    <circle cx="0" cy="-1.6" r="0.08" fill="#0ea5e9"/>
  </g>
  
  <!-- Research Telescope Star - Deep Space Explorer (Right) -->
  <g transform="translate(12.2,6.2)">
    <!-- Telescope extension rays -->
    <path d="M0 -2.6 L0.38 -0.85 L0 0 L-0.38 -0.85 Z" fill="url(#researchTelescope)"/>
    <path d="M2.6 0 L0.85 -0.38 L0 0 L0.85 0.38 Z" fill="url(#researchTelescope)"/>
    <path d="M0 2.6 L-0.38 0.85 L0 0 L0.38 0.85 Z" fill="url(#researchTelescope)"/>
    <path d="M-2.6 0 L-0.85 0.38 L0 0 L-0.85 -0.38 Z" fill="url(#researchTelescope)"/>
    
    <!-- Extended telescope arm -->
    <rect x="-0.3" y="-3.2" width="0.6" height="3.2" fill="#a855f7" rx="0.3"/>
    <circle cx="0" cy="-3.2" r="0.6" fill="#5b21b6"/>
    <circle cx="0" cy="-3.2" r="0.35" fill="#e4d4f4"/>
    
    <!-- Telescope housing -->
    <circle cx="0" cy="0" r="1.1" fill="#a855f7"/>
    <circle cx="0" cy="0" r="0.6" fill="#f5f3ff"/>
    <circle cx="0" cy="0" r="0.25" fill="#7c3aed"/>
    
    <!-- Research scanning beams -->
    <line x1="0" y1="-4.5" x2="0" y2="-5.5" stroke="#a855f7" stroke-width="0.1" opacity="0.8"/>
    <line x1="-0.3" y1="-4.8" x2="-0.8" y2="-5.8" stroke="#a855f7" stroke-width="0.08" opacity="0.6"/>
    <line x1="0.3" y1="-4.8" x2="0.8" y2="-5.8" stroke="#a855f7" stroke-width="0.08" opacity="0.6"/>
  </g>
  
  <!-- Energy Core Star - Central Power System (Center) -->
  <g transform="translate(8,8)">
    <!-- Primary energy rays -->
    <path d="M0 -3.2 L0.45 -1 L0 0 L-0.45 -1 Z" fill="url(#energyCore)"/>
    <path d="M3.2 0 L1 -0.45 L0 0 L1 0.45 Z" fill="url(#energyCore)"/>
    <path d="M0 3.2 L-0.45 1 L0 0 L0.45 1 Z" fill="url(#energyCore)"/>
    <path d="M-3.2 0 L-1 0.45 L0 0 L-1 -0.45 Z" fill="url(#energyCore)"/>
    
    <!-- Secondary energy rays -->
    <path d="M2.26 -2.26 L0.8 -0.8 L0 0 L-0.3 -0.7 Z" fill="url(#energyCore)" opacity="0.8"/>
    <path d="M2.26 2.26 L0.7 0.3 L0 0 L0.8 0.8 Z" fill="url(#energyCore)" opacity="0.8"/>
    <path d="M-2.26 2.26 L-0.8 0.8 L0 0 L0.3 0.7 Z" fill="url(#energyCore)" opacity="0.8"/>
    <path d="M-2.26 -2.26 L-0.7 -0.3 L0 0 L -0.8 -0.8 Z" fill="url(#energyCore)" opacity="0.8"/>
    
    <!-- Energy pulse field -->
    <circle cx="0" cy="0" r="2.8" fill="url(#energyPulse)">
      <animate attributeName="r" values="2.5;3.2;2.5" dur="3s" repeatCount="indefinite"/>
      <animate attributeName="opacity" values="0.3;0.6;0.3" dur="3s" repeatCount="indefinite"/>
    </circle>
    
    <!-- Primary observation dome -->
    <circle cx="0" cy="0" r="2" fill="#fbbf24"/>
    <circle cx="0" cy="0" r="1.5" fill="none" stroke="#fef3c7" stroke-width="0.1" opacity="0.7"/>
    <circle cx="0" cy="0" r="1" fill="none" stroke="#f59e0b" stroke-width="0.08" opacity="0.6"/>
    
    <!-- Core energy reactor -->
    <circle cx="0" cy="0" r="0.8" fill="#fefce8"/>
    <circle cx="0" cy="0" r="0.5" fill="#fbbf24"/>
    <circle cx="0" cy="0" r="0.25" fill="#f59e0b"/>
    
    <!-- Power distribution nodes -->
    <circle cx="1.4" cy="0" r="0.12" fill="#fef3c7">
      <animate attributeName="opacity" values="0.7;1;0.7" dur="2s" repeatCount="indefinite"/>
    </circle>
    <circle cx="-1.4" cy="0" r="0.12" fill="#fef3c7">
      <animate attributeName="opacity" values="1;0.7;1" dur="2s" repeatCount="indefinite"/>
    </circle>
    <circle cx="0" cy="1.4" r="0.12" fill="#fef3c7">
      <animate attributeName="opacity" values="0.7;1;0.7" dur="1.5s" repeatCount="indefinite"/>
    </circle>
    <circle cx="0" cy="-1.4" r="0.12" fill="#fef3c7">
      <animate attributeName="opacity" values="1;0.7;1" dur="1.5s" repeatCount="indefinite"/>
    </circle>
  </g>
  
  <!-- System status indicators -->
  <circle cx="8" cy="2.5" r="0.06" fill="#22c55e" opacity="0.9">
    <animate attributeName="opacity" values="0.6;1;0.6" dur="2.5s" repeatCount="indefinite"/>
  </circle>
  <circle cx="13.5" cy="8" r="0.05" fill="#3b82f6" opacity="0.8">
    <animate attributeName="opacity" values="0.5;0.9;0.5" dur="3s" repeatCount="indefinite"/>
  </circle>
  <circle cx="2.5" cy="8" r="0.05" fill="#06b6d4" opacity="0.9">
    <animate attributeName="opacity" values="0.7;1;0.7" dur="2s" repeatCount="indefinite"/>
  </circle>
  
  <!-- Outer field energy points -->
  <circle cx="11.3" cy="4.7" r="0.04" fill="#ffffff" opacity="0.9"/>
  <circle cx="4.7" cy="11.3" r="0.04" fill="#ffffff" opacity="0.8"/>
  <circle cx="4.7" cy="4.7" r="0.04" fill="#ffffff" opacity="0.9"/>
  <circle cx="11.3" cy="11.3" r="0.04" fill="#ffffff" opacity="0.7"/>
</svg>