<?xml version="1.0" encoding="UTF-8"?>
<svg version="1.1" xmlns="http://www.w3.org/2000/svg" width="500" height="500">
<path d="M0 0 C8.63864412 5.77591096 15.18887437 12.37578964 19.48828125 21.9140625 C20.25205078 23.58662109 20.25205078 23.58662109 21.03125 25.29296875 C26.10034882 37.50559759 24.10712917 52.40006342 19.30078125 64.3515625 C19.82285156 64.44566406 20.34492188 64.53976563 20.8828125 64.63671875 C24.14529692 65.60123353 27.01288544 67.17344711 29.98828125 68.7890625 C30.63676025 69.13815674 31.28523926 69.48725098 31.95336914 69.84692383 C41.24902227 74.89705661 50.4112909 80.23326893 59.3359375 85.9140625 C63.04795266 88.24560244 66.86079291 90.24902525 70.80078125 92.1640625 C71.74824219 92.63102539 71.74824219 92.63102539 72.71484375 93.10742188 C74.24163337 93.8592501 75.77093357 94.60597662 77.30078125 95.3515625 C77.67203125 94.26875 77.67203125 94.26875 78.05078125 93.1640625 C82.04623971 84.17428097 90.92407482 79.57943566 99.67578125 75.9765625 C110.51740362 71.80670774 122.37981885 72.36638347 133.171875 76.43359375 C144.73326889 81.6505036 155.19834229 90.53538806 160.30078125 102.3515625 C165.27503765 115.84494769 164.59880441 130.41608586 159.375 143.70703125 C153.24546445 156.30044065 141.58301419 164.33775322 128.734375 168.87109375 C126.30078125 169.3515625 126.30078125 169.3515625 118.30078125 169.3515625 C118.30078125 186.5115625 118.30078125 203.6715625 118.30078125 221.3515625 C124.24078125 222.3415625 124.24078125 222.3415625 130.30078125 223.3515625 C143.96309314 227.98391567 152.98266029 237.66059402 159.7421875 249.95703125 C165.28240275 262.02331459 164.93898755 276.18792315 160.5 288.5859375 C158.80014342 292.50612792 156.87627462 295.94526482 154.30078125 299.3515625 C153.87152344 299.94324219 153.44226563 300.53492188 153 301.14453125 C145.66619681 310.5028773 134.31221808 317.04895906 122.625 318.94921875 C106.64083206 320.36967085 94.79889109 317.07606723 82.30859375 307.09765625 C80.20649118 305.26956316 78.26147605 303.32936678 76.30078125 301.3515625 C69.58202853 305.14421071 62.86558362 308.94091232 56.15087891 312.74072266 C53.84215308 314.04558586 51.53133223 315.34652452 49.21875 316.64453125 C41.50626655 320.99907662 33.98752808 325.61468996 26.50390625 330.34765625 C23.30078125 332.3515625 23.30078125 332.3515625 21.30078125 333.3515625 C21.63078125 334.5065625 21.96078125 335.6615625 22.30078125 336.8515625 C25.27225496 350.38352553 23.65161254 363.46243144 16.609375 375.39453125 C14.78891122 378.11707559 12.75444924 380.18320474 10.30078125 382.3515625 C9.7490625 382.89425781 9.19734375 383.43695313 8.62890625 383.99609375 C-0.52216107 392.67448198 -11.58812319 397.20107541 -24.13671875 397.6015625 C-39.0481436 397.10625293 -51.66308021 391.45166067 -62.3515625 381.09375 C-70.67534006 371.37113462 -73.13047924 360.19441632 -72.96875 347.7265625 C-72.54504493 342.42103812 -71.23735552 337.43290719 -69.69921875 332.3515625 C-70.50875 332.13113281 -71.31828125 331.91070312 -72.15234375 331.68359375 C-76.64211194 329.99745834 -80.41301834 327.60148113 -84.44921875 325.0390625 C-89.95353171 321.60377406 -95.40773978 318.3757969 -101.2734375 315.58984375 C-107.48197347 312.42059109 -113.36027223 308.52187774 -119.19921875 304.7265625 C-123.11965846 302.06029455 -123.11965846 302.06029455 -127.69921875 301.3515625 C-129.25887286 302.92409744 -129.25887286 302.92409744 -130.76171875 304.9765625 C-137.09839514 312.51387231 -146.39333584 317.47539573 -156.21337891 318.65307617 C-158.84160489 318.78805531 -161.44277291 318.81932557 -164.07421875 318.7890625 C-164.9981543 318.78148926 -165.92208984 318.77391602 -166.87402344 318.76611328 C-179.79319659 318.45417695 -189.47430201 313.43970413 -198.82421875 304.6640625 C-208.94563991 294.03758041 -213.2138377 282.90775397 -213.05102539 268.33862305 C-212.6010961 255.24396809 -208.12929464 245.25455128 -199.69921875 235.3515625 C-190.16581446 226.50970049 -181.66549189 222.3515625 -168.69921875 222.3515625 C-168.36921875 204.8615625 -168.03921875 187.3715625 -167.69921875 169.3515625 C-170.33921875 169.3515625 -172.97921875 169.3515625 -175.69921875 169.3515625 C-187.39639218 166.9427842 -198.65855023 159.12499776 -205.421875 149.3828125 C-213.19742773 137.01801916 -214.72393116 123.43368585 -211.57421875 109.1015625 C-207.61927664 95.46067419 -199.50135598 85.43842452 -187.08984375 78.56640625 C-186.3009375 78.16550781 -185.51203125 77.76460938 -184.69921875 77.3515625 C-184.0546875 77.02285156 -183.41015625 76.69414062 -182.74609375 76.35546875 C-172.93055234 72.04570372 -160.84021072 72.5524115 -150.69921875 75.3515625 C-140.76284179 79.35561684 -131.91046409 84.4073692 -125.69921875 93.3515625 C-125.69921875 94.0115625 -125.69921875 94.6715625 -125.69921875 95.3515625 C-113.41355468 88.80624631 -101.28961757 82.02564517 -89.32421875 74.9140625 C-88.19072998 74.24052734 -87.05724121 73.56699219 -85.8894043 72.87304688 C-80.11820072 69.42899007 -74.38202747 65.93961326 -68.69921875 62.3515625 C-68.98796875 61.70574219 -69.27671875 61.05992188 -69.57421875 60.39453125 C-74.07703442 48.96550954 -74.79823761 35.94682725 -70.63671875 24.2890625 C-64.64759764 11.14302508 -55.36017026 1.61780717 -41.69921875 -3.6484375 C-28.37442034 -8.29192786 -12.02065074 -7.341121 0 0 Z M-45.69921875 13.3515625 C-46.66859375 14.0321875 -47.63796875 14.7128125 -48.63671875 15.4140625 C-55.33760553 21.12484464 -60.1104482 29.94050545 -60.91015625 38.6484375 C-61.16667403 45.00218565 -59.82833623 50.39510288 -57.69921875 56.3515625 C-54.02655708 55.67792404 -51.28310874 54.08420928 -48.0859375 52.19140625 C-47.00248047 51.56298828 -45.91902344 50.93457031 -44.80273438 50.28710938 C-42.53240565 48.95918125 -40.26672303 47.62327648 -38.00585938 46.27929688 C-36.91853516 45.65216797 -35.83121094 45.02503906 -34.7109375 44.37890625 C-33.72569092 43.79874756 -32.74044434 43.21858887 -31.7253418 42.62084961 C-27.40823451 40.81006778 -23.57720333 40.60095738 -19.20703125 42.34765625 C-18.42070312 42.82332031 -17.634375 43.29898438 -16.82421875 43.7890625 C-15.89996094 44.32660156 -14.97570312 44.86414063 -14.0234375 45.41796875 C-12.37794922 46.37509766 -12.37794922 46.37509766 -10.69921875 47.3515625 C-7.69208223 49.00255295 -4.66587981 50.61642484 -1.63671875 52.2265625 C-0.88600098 52.63189209 -0.1352832 53.03722168 0.63818359 53.45483398 C4.26607999 55.58805759 4.26607999 55.58805759 8.30078125 56.3515625 C12.26459067 47.59815003 12.55588022 39.05273338 9.4765625 29.90234375 C4.37044784 18.82495879 -3.39000924 11.54625112 -14.69921875 7.3515625 C-25.61203613 3.97325651 -36.77999231 6.61259141 -45.69921875 13.3515625 Z M-24.69921875 62.3515625 C-25.02921875 64.0015625 -25.35921875 65.6515625 -25.69921875 67.3515625 C-27.01921875 67.3515625 -28.33921875 67.3515625 -29.69921875 67.3515625 C-31.49289993 70.47541014 -33.28409504 73.60067492 -35.07421875 76.7265625 C-35.61715576 77.67450684 -36.16009277 78.62245117 -36.71948242 79.59912109 C-40.62456712 86.43259144 -44.44957431 93.30631159 -48.23510742 100.20654297 C-51.12902798 105.4389792 -54.24101719 110.44430604 -57.6171875 115.3828125 C-58.15279297 116.35734375 -58.15279297 116.35734375 -58.69921875 117.3515625 C-58.36921875 118.0115625 -58.03921875 118.6715625 -57.69921875 119.3515625 C-55.88718254 118.28452222 -54.07519487 117.21739943 -52.26342773 116.14990234 C-50.71222567 115.23773858 -49.15963585 114.32793095 -47.60571289 113.42041016 C-44.09879221 111.36983015 -40.60528091 109.31321163 -37.1796875 107.12890625 C-36.17550781 106.50113281 -35.17132813 105.87335938 -34.13671875 105.2265625 C-33.26917969 104.66710937 -32.40164062 104.10765625 -31.5078125 103.53125 C-27.71975077 101.9401587 -24.68237877 101.50392126 -20.69921875 102.3515625 C-16.605484 104.13352816 -12.83288881 106.36353721 -9.01171875 108.6640625 C-7.48321289 109.55641602 -7.48321289 109.55641602 -5.92382812 110.46679688 C-2.24145629 112.62227287 1.42658383 114.78269051 5.00317383 117.11010742 C5.76138428 117.5197876 6.51959473 117.92946777 7.30078125 118.3515625 C7.96078125 118.0215625 8.62078125 117.6915625 9.30078125 117.3515625 C9.00421631 116.87436768 8.70765137 116.39717285 8.40209961 115.90551758 C-1.36606632 100.1520578 -1.36606632 100.1520578 -5.13671875 92.9765625 C-8.21426155 87.14267675 -11.51649137 81.45867023 -14.88671875 75.7890625 C-15.398396 74.91910645 -15.91007324 74.04915039 -16.43725586 73.15283203 C-18.85906987 69.10789156 -21.08563208 65.46493908 -24.69921875 62.3515625 Z M-8.69921875 62.3515625 C-3.77412952 71.80278122 1.412276 81.05269295 6.85546875 90.21484375 C9.09311153 93.98419588 11.2677763 97.78623116 13.42578125 101.6015625 C16.63675278 107.24665761 19.98420425 112.79108978 23.421875 118.30078125 C25.63401859 121.89264018 27.72532487 125.54719502 29.78125 129.23046875 C34.01032865 135.13378419 41.33382867 138.75890939 47.42578125 142.4765625 C48.40804687 143.12882812 49.3903125 143.78109375 50.40234375 144.453125 C53.4086946 146.25693551 55.88102063 147.56144958 59.30078125 148.3515625 C63.56756547 147.18673442 66.73569735 144.90854711 70.30078125 142.3515625 C71.91631099 141.40583228 73.54231627 140.47770295 75.1796875 139.5703125 C76.74183717 138.66570407 78.30303307 137.75944663 79.86328125 136.8515625 C80.68030518 136.3774292 81.4973291 135.9032959 82.33911133 135.41479492 C88.02343158 132.11029952 93.6856401 128.7726125 99.30078125 125.3515625 C94.9923868 121.67345422 90.34617793 118.85041604 85.48828125 115.9765625 C84.6166333 115.45763428 83.74498535 114.93870605 82.84692383 114.40405273 C80.00166027 112.71397874 77.15204221 111.03149721 74.30078125 109.3515625 C72.86025391 108.50247314 72.86025391 108.50247314 71.390625 107.63623047 C59.55655409 100.6732743 47.65588113 93.84061945 35.68457031 87.11669922 C28.46874828 83.0486272 21.35545624 78.82759918 14.26513672 74.54541016 C9.25874827 71.52281969 4.24064818 68.52531462 -0.82421875 65.6015625 C-1.91992188 64.96734375 -3.015625 64.333125 -4.14453125 63.6796875 C-6.51508986 62.19780673 -6.51508986 62.19780673 -8.69921875 62.3515625 Z M-47.3046875 65.22265625 C-48.39583862 65.82907959 -48.39583862 65.82907959 -49.5090332 66.44775391 C-50.29366943 66.89038574 -51.07830566 67.33301758 -51.88671875 67.7890625 C-52.70551514 68.24716309 -53.52431152 68.70526367 -54.36791992 69.17724609 C-59.72750649 72.1923718 -64.99651245 75.32496248 -70.24121094 78.53515625 C-76.45527957 82.28995819 -82.83129928 85.74773752 -89.20013428 89.23007202 C-99.58823907 94.91064223 -109.82520989 100.70898471 -119.77880859 107.12890625 C-123.55068926 109.53032735 -127.37895481 111.84070239 -131.19921875 114.1640625 C-136.72189893 117.52444924 -142.22459073 120.91334137 -147.69921875 124.3515625 C-145.06910678 127.35337083 -141.98205609 129.05068813 -138.52734375 131.00390625 C-137.6263797 131.51601402 -137.6263797 131.51601402 -136.70721436 132.03846741 C-134.79044451 133.12659512 -132.86994245 134.20793225 -130.94921875 135.2890625 C-129.67292192 136.01191945 -128.39687758 136.7352224 -127.12109375 137.45898438 C-124.75447369 138.80088176 -122.38617769 140.13963001 -120.01660156 141.47631836 C-118.27276286 142.46207234 -116.53077177 143.4516689 -114.80874634 144.47505188 C-111.30001166 146.66905486 -111.30001166 146.66905486 -107.31640625 147.40234375 C-103.29011485 145.7858178 -99.58311184 143.69625977 -95.82421875 141.5390625 C-95.04691406 141.10013672 -94.26960938 140.66121094 -93.46875 140.20898438 C-91.93187664 139.33981146 -90.39913609 138.46328577 -88.87084961 137.57910156 C-87.49497621 136.80137346 -86.10101666 136.05416604 -84.68579102 135.35058594 C-80.12738497 133.03318062 -78.42216829 130.86804583 -76.38671875 126.2265625 C-75.81555209 124.98106693 -75.23977353 123.73767918 -74.66015625 122.49609375 C-74.35303711 121.83174316 -74.04591797 121.16739258 -73.72949219 120.48291016 C-71.82226199 116.53738417 -69.65782968 112.73331226 -67.51171875 108.9140625 C-67.09559326 108.16946777 -66.67946777 107.42487305 -66.25073242 106.65771484 C-65.07179696 104.55286069 -63.88622805 102.45187133 -62.69921875 100.3515625 C-62.35584473 99.73788818 -62.0124707 99.12421387 -61.65869141 98.49194336 C-59.40204333 94.48658689 -56.97156768 90.63156168 -54.44921875 86.7890625 C-51.21019644 81.80176991 -48.10347814 76.75573538 -45.13671875 71.6015625 C-44.7902832 71.00529053 -44.44384766 70.40901855 -44.08691406 69.79467773 C-42.26114584 66.76542214 -42.26114584 66.76542214 -41.69921875 63.3515625 C-44.13789749 63.3515625 -45.18108072 64.0377127 -47.3046875 65.22265625 Z M-191.7109375 98.6796875 C-198.78680742 108.11418073 -200.9426004 117.63834221 -199.69921875 129.3515625 C-197.61284879 138.75264619 -192.74815397 146.99913839 -184.57421875 152.2890625 C-183.29558208 153.00050279 -182.00518023 153.69162035 -180.69921875 154.3515625 C-179.89484375 154.7640625 -179.09046875 155.1765625 -178.26171875 155.6015625 C-175.80156254 156.32160822 -173.58242895 156.63288349 -171.0390625 156.8984375 C-170.22687256 156.98448242 -169.41468262 157.07052734 -168.57788086 157.15917969 C-167.95792236 157.22266602 -167.33796387 157.28615234 -166.69921875 157.3515625 C-166.71605713 156.29243652 -166.73289551 155.23331055 -166.75024414 154.14208984 C-166.80106255 150.19423894 -166.79246573 146.24832277 -166.76635742 142.30029297 C-166.76328425 140.5951679 -166.77610457 138.88993441 -166.80541992 137.18505859 C-167.03093465 123.13754107 -167.03093465 123.13754107 -163.99365234 119.06420898 C-161.63056605 117.45034928 -159.3551938 116.41010149 -156.69921875 115.3515625 C-154.95101389 114.40507693 -153.21145542 113.44246349 -151.48046875 112.46484375 C-148.81225942 111.04166682 -146.13771864 109.63195454 -143.45703125 108.23242188 C-142.59851563 107.77287109 -141.74 107.31332031 -140.85546875 106.83984375 C-140.08009766 106.43290283 -139.30472656 106.02596191 -138.50585938 105.60668945 C-136.38231835 104.39867938 -136.38231835 104.39867938 -135.69921875 101.3515625 C-140.54112006 93.8179972 -147.39242759 89.22256249 -155.92578125 86.890625 C-170.03671497 84.14793647 -182.28522143 87.77148016 -191.7109375 98.6796875 Z M87.484375 99.48046875 C86.12258449 101.2642629 86.12258449 101.2642629 86.30078125 103.3515625 C87.06745117 103.78500977 87.83412109 104.21845703 88.62402344 104.66503906 C91.48216754 106.28502925 94.33685954 107.91079798 97.18945312 109.54052734 C98.42185452 110.24304787 99.65556463 110.94327795 100.890625 111.64111328 C102.67151037 112.647888 104.44743762 113.6629617 106.22265625 114.6796875 C107.2909668 115.2871582 108.35927734 115.89462891 109.45996094 116.52050781 C112.79595115 118.67072495 115.50723764 120.76447528 117.30078125 124.3515625 C117.38717994 126.75994928 117.41645889 129.13890131 117.3984375 131.546875 C117.39702255 132.25431854 117.3956076 132.96176208 117.39414978 133.69064331 C117.38854725 135.95265919 117.37599443 138.21457648 117.36328125 140.4765625 C117.35826657 142.00911315 117.35370361 143.54166536 117.34960938 145.07421875 C117.33857702 148.83337138 117.32131077 152.59245022 117.30078125 156.3515625 C125.56935348 156.4950399 132.93969612 154.14058977 139.67578125 149.1640625 C148.20033944 140.03060729 150.81566596 130.39100237 150.609375 118.07421875 C149.7926576 108.22191899 144.67759216 99.92884763 137.19921875 93.5625 C121.12691636 82.03360465 100.48661595 84.24128312 87.484375 99.48046875 Z M-30.2578125 116.02734375 C-31.19101318 116.60226563 -32.12421387 117.1771875 -33.08569336 117.76953125 C-34.09253174 118.39472656 -35.09937012 119.01992187 -36.13671875 119.6640625 C-43.42298991 124.14479462 -50.72126627 128.58753613 -58.13671875 132.8515625 C-58.87913818 133.27928955 -59.62155762 133.7070166 -60.38647461 134.14770508 C-62.82333589 135.55024668 -65.26126962 136.95091275 -67.69921875 138.3515625 C-72.0366577 140.84451593 -76.36920037 143.34574541 -80.69921875 145.8515625 C-82.26820923 146.75165039 -82.26820923 146.75165039 -83.86889648 147.66992188 C-85.33178101 148.51780273 -85.33178101 148.51780273 -86.82421875 149.3828125 C-88.12746094 150.13401367 -88.12746094 150.13401367 -89.45703125 150.90039062 C-91.5054298 152.22613986 -93.06406849 153.55343158 -94.69921875 155.3515625 C-91.72084521 157.08209788 -88.74137151 158.81073078 -85.76171875 160.5390625 C-84.93091797 161.02181641 -84.10011719 161.50457031 -83.24414062 162.00195312 C-81.56748007 162.97402481 -79.8872677 163.93999518 -78.20361328 164.89990234 C-76.53033494 165.86981002 -74.87459754 166.87061093 -73.23779297 167.90087891 C-69.02504105 170.67559523 -69.02504105 170.67559523 -64.2265625 170.98828125 C-63.39253906 170.44816406 -62.55851562 169.90804687 -61.69921875 169.3515625 C-60.24543713 168.5604055 -58.78795752 167.77602927 -57.328125 166.99609375 C-55.63856485 166.05344077 -53.94979945 165.1093623 -52.26171875 164.1640625 C-50.46693262 163.1743531 -48.67135528 162.18607722 -46.875 161.19921875 C-44.42228158 159.85177369 -41.9705395 158.50348991 -39.52880859 157.13623047 C-37.67904404 156.10451663 -35.81734674 155.0995244 -33.94921875 154.1015625 C-32.923125 153.53953125 -31.89703125 152.9775 -30.83984375 152.3984375 C-24.82545577 150.39364151 -20.3122751 151.87766328 -14.8515625 154.57421875 C-13.10659836 155.50845696 -11.36850857 156.45562373 -9.63671875 157.4140625 C-8.72220947 157.90487305 -7.8077002 158.39568359 -6.86547852 158.90136719 C-2.60122648 161.19443301 1.6354344 163.53517455 5.86328125 165.89453125 C6.54511475 166.2702124 7.22694824 166.64589355 7.92944336 167.03295898 C9.18681707 167.72776074 10.43808952 168.4337614 11.68188477 169.15258789 C14.78848244 170.94514274 14.78848244 170.94514274 18.26293945 171.04663086 C21.70796196 169.87160042 24.78294056 167.97303167 27.92578125 166.1640625 C28.63347656 165.76131104 29.34117187 165.35855957 30.0703125 164.94360352 C35.52839688 161.82620719 40.94171938 158.63656437 46.30078125 155.3515625 C43.73478798 152.35790368 40.79809069 151.09150826 37.30078125 149.3515625 C35.40654019 148.2277503 33.52663621 147.07949606 31.66015625 145.91015625 C30.59853271 145.24902832 29.53690918 144.58790039 28.44311523 143.90673828 C27.32364502 143.20790527 26.2041748 142.50907227 25.05078125 141.7890625 C16.68186249 136.59095636 8.26977048 131.52807852 -0.38769531 126.82055664 C-6.48565152 123.50246752 -12.45721611 119.99063831 -18.39672852 116.39697266 C-23.79932323 113.16416021 -24.98052868 112.75184113 -30.2578125 116.02734375 Z M-154.69921875 135.3515625 C-154.69921875 174.6215625 -154.69921875 213.8915625 -154.69921875 254.3515625 C-151.58901423 250.46380685 -149.29321724 246.95989721 -147.07421875 242.6015625 C-144.17977 237.04953332 -141.14873093 231.60848547 -137.94921875 226.2265625 C-133.54121708 218.8105957 -129.24202551 211.33733925 -124.98535156 203.83349609 C-122.05680822 198.68298815 -119.04336646 193.60327675 -115.90722656 188.57592773 C-111.45682459 180.38117987 -111.86553682 167.2310587 -113.69921875 158.3515625 C-117.00654039 154.12428621 -120.68808846 152.96521687 -125.69921875 151.3515625 C-127.45017768 150.45542275 -129.1807005 149.51805451 -130.88671875 148.5390625 C-131.76457031 148.06597656 -132.64242187 147.59289062 -133.546875 147.10546875 C-138.46411252 144.36960797 -143.2946219 141.48702189 -148.12573242 138.60229492 C-151.22590559 136.37455378 -151.22590559 136.37455378 -154.69921875 135.3515625 Z M97.05078125 140.1015625 C89.37139925 144.81819312 81.48751451 149.11805778 73.54003906 153.36425781 C72.62963867 153.8537793 71.71923828 154.34330078 70.78125 154.84765625 C69.55764771 155.50012329 69.55764771 155.50012329 68.30932617 156.16577148 C66.16972397 157.3163359 66.16972397 157.3163359 64.30078125 159.3515625 C63.84512394 162.66307733 63.97682991 166.01235262 63.98828125 169.3515625 C63.97216797 170.26035156 63.95605469 171.16914063 63.93945312 172.10546875 C63.93226757 182.20835626 66.54634774 190.03420128 72.17578125 198.3515625 C75.49407199 203.34422013 78.34841885 208.35637861 80.97900391 213.74511719 C83.28116831 218.28481191 85.92893436 222.61629596 88.55078125 226.9765625 C93.94700599 236.0233783 99.19305512 245.13917791 104.30078125 254.3515625 C104.63078125 254.3515625 104.96078125 254.3515625 105.30078125 254.3515625 C105.30078125 215.4115625 105.30078125 176.4715625 105.30078125 136.3515625 C102.08355083 136.3515625 99.71300447 138.4400803 97.05078125 140.1015625 Z M-32.83984375 166.24609375 C-33.99226563 166.87193359 -35.1446875 167.49777344 -36.33203125 168.14257812 C-36.92532227 168.47427002 -37.51861328 168.80596191 -38.12988281 169.14770508 C-39.94954613 170.16424539 -41.7799089 171.15882783 -43.61328125 172.15039062 C-49.50657621 174.85199827 -49.50657621 174.85199827 -53.69921875 179.3515625 C-49.95080649 181.64583391 -46.20021906 183.93652527 -42.44921875 186.2265625 C-41.38574219 186.87753906 -40.32226562 187.52851563 -39.2265625 188.19921875 C-37.68935547 189.13701172 -37.68935547 189.13701172 -36.12109375 190.09375 C-35.1784668 190.6697998 -34.23583984 191.24584961 -33.26464844 191.83935547 C-28.93583207 194.55569995 -28.93583207 194.55569995 -24.04296875 195.30859375 C-19.30519899 193.9525732 -15.40506904 191.56715136 -11.19921875 189.0390625 C-10.37035156 188.55244141 -9.54148437 188.06582031 -8.6875 187.56445312 C-4.26585253 184.95293956 0.06123075 182.2490475 4.30078125 179.3515625 C1.52065457 176.33791323 -1.06395865 174.41724026 -4.7265625 172.58984375 C-5.68369141 172.11095703 -6.64082031 171.63207031 -7.62695312 171.13867188 C-8.62017578 170.65205078 -9.61339844 170.16542969 -10.63671875 169.6640625 C-12.12075195 168.91672852 -12.12075195 168.91672852 -13.63476562 168.15429688 C-23.09153048 163.22441114 -23.09153048 163.22441114 -32.83984375 166.24609375 Z M-101.69921875 167.3515625 C-102.0711137 177.34750413 -102.3547857 187.34178463 -102.5282135 197.34325218 C-102.61149055 201.98865565 -102.72423288 206.62930618 -102.90625 211.27197266 C-103.08106168 215.75931329 -103.17593756 220.24210969 -103.21725464 224.73259354 C-103.24666045 226.43878423 -103.30410431 228.14474465 -103.39089966 229.84897995 C-103.82745299 237.79996549 -103.82745299 237.79996549 -101.69921875 245.3515625 C-97.82687774 249.560258 -92.7591613 252.07091891 -87.63218689 254.45132828 C-85.0219768 255.66697193 -82.53070544 257.07482294 -80.0234375 258.48828125 C-79.16024902 258.9476709 -78.29706055 259.40706055 -77.40771484 259.88037109 C-72.01444771 262.80986701 -66.77833712 266.01444024 -61.51171875 269.1640625 C-53.73841282 273.79530904 -45.95953959 278.41253564 -38.07421875 282.8515625 C-37.09932495 283.40227417 -37.09932495 283.40227417 -36.10473633 283.96411133 C-33.55058155 285.63770221 -33.55058155 285.63770221 -30.69921875 286.3515625 C-30.47193973 282.16486727 -30.27078684 277.9773031 -30.07421875 273.7890625 C-30.00976562 272.60763672 -29.9453125 271.42621094 -29.87890625 270.20898438 C-29.23084004 260.37933496 -29.23084004 260.37933496 -33.01171875 251.5703125 C-35.14273903 250.0312423 -37.31441792 248.96266289 -39.69921875 247.8515625 C-45.46735397 245.03456623 -51.06391557 241.97474156 -56.63671875 238.7890625 C-57.45333984 238.33015625 -58.26996094 237.87125 -59.11132812 237.3984375 C-69.03598327 231.67803346 -69.03598327 231.67803346 -71.69921875 226.3515625 C-71.74856672 224.95683887 -71.73401403 223.5595579 -71.68579102 222.16479492 C-71.65989395 221.30017136 -71.63399689 220.43554779 -71.60731506 219.54472351 C-71.57705734 218.60828506 -71.54679962 217.67184662 -71.515625 216.70703125 C-71.47374637 214.73116449 -71.43410298 212.75524933 -71.39648438 210.77929688 C-71.33482878 207.65746042 -71.26168887 204.53822277 -71.15063477 201.41772461 C-71.04751245 198.4095538 -70.99583259 195.40408918 -70.953125 192.39453125 C-70.90869766 191.4641655 -70.86427032 190.53379974 -70.8184967 189.57524109 C-70.80695048 186.94150262 -70.88791067 184.85929591 -71.69921875 182.3515625 C-74.07488573 180.00939463 -76.67948322 178.71367113 -79.69921875 177.3515625 C-80.55878174 176.86131592 -81.41834473 176.37106934 -82.30395508 175.8659668 C-84.70321558 174.58388909 -87.10506094 173.30720771 -89.51171875 172.0390625 C-90.35669922 171.58466797 -91.20167969 171.13027344 -92.07226562 170.66210938 C-92.88373047 170.23349609 -93.69519531 169.80488281 -94.53125 169.36328125 C-95.26061768 168.97615967 -95.98998535 168.58903809 -96.74145508 168.19018555 C-98.80385707 167.15468586 -98.80385707 167.15468586 -101.69921875 167.3515625 Z M41.23828125 171.5390625 C40.30822266 172.02181641 39.37816406 172.50457031 38.41992188 173.00195312 C37.04416992 173.7222168 37.04416992 173.7222168 35.640625 174.45703125 C34.80909912 174.89168701 33.97757324 175.32634277 33.12084961 175.77416992 C32.19022705 176.29470947 31.25960449 176.81524902 30.30078125 177.3515625 C29.6131369 177.65784073 28.92549255 177.96411896 28.2170105 178.27967834 C25.8879365 179.44848727 24.14541949 180.50426473 22.30078125 182.3515625 C21.18335837 185.8258654 21.32179512 189.1400903 21.44140625 192.76171875 C21.43932159 194.2684037 21.43932159 194.2684037 21.43719482 195.80552673 C21.43750608 199.00986393 21.49064668 202.21033333 21.55078125 205.4140625 C21.58971971 208.6207169 21.61709621 211.82641748 21.621521 215.03330994 C21.6263624 217.02677745 21.65218949 219.02032884 21.70123291 221.01319885 C21.74647017 227.71783103 21.74647017 227.71783103 19.55615234 230.83227539 C17.36462031 232.30855855 15.21885034 233.69386277 12.88671875 234.9375 C12.0477002 235.3905249 11.20868164 235.8435498 10.34423828 236.31030273 C9.46364746 236.77766846 8.58305664 237.24503418 7.67578125 237.7265625 C5.86776449 238.70308578 4.06046374 239.68093597 2.25390625 240.66015625 C1.39345703 241.12534668 0.53300781 241.59053711 -0.35351562 242.06982422 C-4.55170622 244.36379806 -8.65093674 246.80386568 -12.69921875 249.3515625 C-13.32183594 249.73957031 -13.94445312 250.12757813 -14.5859375 250.52734375 C-17.66450026 252.43840746 -17.66450026 252.43840746 -19.69921875 255.3515625 C-19.79991964 257.94609126 -19.84006678 260.50729688 -19.82421875 263.1015625 C-19.82228516 263.85493896 -19.82035156 264.60831543 -19.81835938 265.38452148 C-19.76524295 272.40252967 -19.31968666 279.36021872 -18.69921875 286.3515625 C-14.81632953 284.90300273 -11.31533982 283.09796243 -7.71875 281.04296875 C-7.15314362 280.72051178 -6.58753723 280.39805481 -6.00479126 280.06582642 C-4.17164753 279.01889286 -2.34153635 277.96679711 -0.51171875 276.9140625 C0.11604462 276.55430328 0.74380798 276.19454407 1.39059448 275.82388306 C9.65411116 271.08760076 17.85937612 266.26981483 25.94995117 261.24243164 C29.77741202 258.86970335 33.63419072 256.56986737 37.546875 254.33984375 C38.8615979 253.59021362 38.8615979 253.59021362 40.20288086 252.82543945 C41.89417855 251.86590894 43.58885396 250.91229998 45.28735352 249.96557617 C46.04459717 249.53607666 46.80184082 249.10657715 47.58203125 248.6640625 C48.25298828 248.28894531 48.92394531 247.91382813 49.61523438 247.52734375 C51.60364497 246.29275414 51.60364497 246.29275414 53.30078125 243.3515625 C53.45562273 240.84102854 53.49450068 238.44938302 53.43603516 235.94262695 C53.42657364 235.19116394 53.41711212 234.43970093 53.40736389 233.66546631 C53.37368642 231.1816779 53.32557159 228.69838873 53.27734375 226.21484375 C53.25117657 224.49278569 53.22590957 222.77071374 53.20150757 221.04862976 C53.13485703 216.51600564 53.05596416 211.98367369 52.97454834 207.45129395 C52.89362782 202.82636734 52.82424799 198.20126933 52.75390625 193.57617188 C52.61418002 184.50109662 52.46152418 175.42628812 52.30078125 166.3515625 C48.80527021 166.3515625 44.27406851 169.94655187 41.23828125 171.5390625 Z M-60.69921875 189.3515625 C-63.38963015 207.76216147 -63.38963015 207.76216147 -58.97949219 225.01171875 C-54.67130069 228.99205055 -49.66331374 231.2970339 -44.21533203 233.34570312 C-40.78628412 234.71652375 -37.68455862 236.53334114 -34.50952148 238.40722656 C-32.74397988 239.50572937 -32.74397988 239.50572937 -30.69921875 239.3515625 C-30.47581474 234.7620422 -30.31303946 230.17571431 -30.20483398 225.58203125 C-30.15971825 224.02190008 -30.09840156 222.46214653 -30.02026367 220.90332031 C-29.27450662 212.01619097 -29.27450662 212.01619097 -32.45263672 204.125 C-34.80100494 202.53816899 -37.08571606 201.43960802 -39.69921875 200.3515625 C-41.11044236 199.54091048 -42.51213523 198.71337249 -43.90234375 197.8671875 C-45.24922104 197.10827395 -46.5981671 196.35301952 -47.94921875 195.6015625 C-48.62984375 195.21613281 -49.31046875 194.83070313 -50.01171875 194.43359375 C-53.51142555 192.47348665 -56.95038195 190.80111273 -60.69921875 189.3515625 Z M2.9519043 193.29199219 C-0.29241461 195.05754816 -3.54576898 196.7981678 -6.828125 198.4921875 C-7.50472168 198.84410156 -8.18131836 199.19601563 -8.87841797 199.55859375 C-10.1986015 200.24420329 -11.52178365 200.92407492 -12.84814453 201.59765625 C-16.05546492 203.2735688 -17.64921863 204.27656232 -19.69921875 207.3515625 C-19.99017647 209.4923928 -19.99017647 209.4923928 -19.9296875 211.8515625 C-19.92839844 212.73432861 -19.92710937 213.61709473 -19.92578125 214.52661133 C-19.91289062 215.45884521 -19.9 216.3910791 -19.88671875 217.3515625 C-19.88027344 218.29604248 -19.87382812 219.24052246 -19.8671875 220.21362305 C-19.79654413 226.62726794 -19.53403614 232.98607992 -18.69921875 239.3515625 C-10.56702327 236.27876456 -3.42663154 231.20941015 3.86328125 226.5390625 C4.79321899 225.94339478 4.79321899 225.94339478 5.74194336 225.33569336 C8.67081066 223.53708772 8.67081066 223.53708772 11.30078125 221.3515625 C11.38917795 218.9758773 11.4160843 216.62947576 11.3984375 214.25390625 C11.39631508 213.19061852 11.39631508 213.19061852 11.39414978 212.10585022 C11.38853568 209.83354538 11.37598088 207.56133775 11.36328125 205.2890625 C11.35826806 203.75195454 11.35370484 202.21484505 11.34960938 200.67773438 C11.33856167 196.90230608 11.32128766 193.12695079 11.30078125 189.3515625 C8.47520519 189.3515625 5.39890894 191.95707335 2.9519043 193.29199219 Z M-114.69921875 210.3515625 C-120.62056322 219.01735034 -125.56186768 228.37829035 -130.68383789 237.52514648 C-134.71065421 244.68607743 -138.89908782 251.72592935 -143.27270508 258.68041992 C-143.69575928 259.3582251 -144.11881348 260.03603027 -144.5546875 260.734375 C-145.10612427 261.60666748 -145.10612427 261.60666748 -145.66870117 262.49658203 C-146.8819722 264.68052736 -147.77136295 267.031923 -148.69921875 269.3515625 C-128.23921875 269.3515625 -107.77921875 269.3515625 -86.69921875 269.3515625 C-90.3159664 265.69820797 -90.3159664 265.69820797 -94.37890625 263.16796875 C-95.40177734 262.61206055 -95.40177734 262.61206055 -96.4453125 262.04492188 C-97.14785156 261.67173828 -97.85039062 261.29855469 -98.57421875 260.9140625 C-99.97083635 260.17170453 -101.36412894 259.42305491 -102.75390625 258.66796875 C-103.36733887 258.34256104 -103.98077148 258.01715332 -104.61279297 257.68188477 C-112.30621956 252.7764926 -112.30621956 252.7764926 -113.25894165 249.3221283 C-113.48985967 246.82927455 -113.53004318 244.3979312 -113.50390625 241.89453125 C-113.51761261 240.99156815 -113.53131897 240.08860504 -113.54544067 239.15827942 C-113.58272133 236.28469939 -113.57902723 233.41284991 -113.57421875 230.5390625 C-113.59234692 228.58656155 -113.61314999 226.63408348 -113.63671875 224.68164062 C-113.68855157 219.90465818 -113.70365063 215.12881072 -113.69921875 210.3515625 C-114.02921875 210.3515625 -114.35921875 210.3515625 -114.69921875 210.3515625 Z M65.30078125 212.3515625 C65.31761963 213.46080078 65.33445801 214.57003906 65.35180664 215.71289062 C65.40272966 219.85830283 65.3939904 224.00187722 65.36791992 228.14746094 C65.36485197 229.93591716 65.37761628 231.72447756 65.40698242 233.51269531 C65.63222474 248.20668505 65.63222474 248.20668505 62.54248047 253.18408203 C60.24192847 255.31655717 58.0411318 256.83334226 55.30078125 258.3515625 C54.53644775 258.81208008 53.77211426 259.27259766 52.98461914 259.74707031 C50.7918978 261.00059865 48.57445667 262.12781988 46.30078125 263.2265625 C40.99311182 265.40070493 40.99311182 265.40070493 37.30078125 269.3515625 C57.76078125 269.3515625 78.22078125 269.3515625 99.30078125 269.3515625 C95.1181258 260.9551619 95.1181258 260.9551619 90.30078125 253.1640625 C85.48577133 245.89083579 81.24119549 238.313343 76.99414062 230.69848633 C71.87915812 221.38603262 71.87915812 221.38603262 66.30078125 212.3515625 C65.97078125 212.3515625 65.64078125 212.3515625 65.30078125 212.3515625 Z M-190.69921875 244.3515625 C-198.65144042 254.65158294 -200.9689648 264.41847901 -199.69921875 277.3515625 C-198.52804629 281.67434498 -196.86343171 285.43866547 -194.69921875 289.3515625 C-194.28800781 290.10179687 -193.87679687 290.85203125 -193.453125 291.625 C-188.84592658 298.76137262 -180.74956229 303.30766328 -172.76171875 305.8515625 C-161.87756816 307.89234074 -152.53299159 304.80861307 -143.32421875 299.3515625 C-140.87881572 297.48839828 -139.46113221 295.82442349 -137.69921875 293.3515625 C-138.45428711 292.89100464 -138.45428711 292.89100464 -139.22460938 292.42114258 C-141.54975109 291.00256104 -143.87448661 289.58331512 -146.19921875 288.1640625 C-146.99070313 287.68130859 -147.7821875 287.19855469 -148.59765625 286.70117188 C-150.9667867 285.25444877 -153.33333115 283.80358158 -155.69921875 282.3515625 C-156.46105469 281.88669434 -157.22289062 281.42182617 -158.0078125 280.94287109 C-158.72066406 280.50410645 -159.43351562 280.0653418 -160.16796875 279.61328125 C-160.80154297 279.22487061 -161.43511719 278.83645996 -162.08789062 278.4362793 C-163.69921875 277.3515625 -163.69921875 277.3515625 -165.69921875 275.3515625 C-165.97769165 273.55453491 -165.97769165 273.55453491 -166.01806641 271.36083984 C-166.0379361 270.54014008 -166.05780579 269.71944031 -166.07827759 268.87387085 C-166.0898288 267.98736847 -166.10138 267.10086609 -166.11328125 266.1875 C-166.1326474 265.28029205 -166.15201355 264.37308411 -166.17196655 263.43838501 C-166.23185091 260.53454046 -166.27818291 257.63065646 -166.32421875 254.7265625 C-166.3623904 252.76039917 -166.40144164 250.7942527 -166.44140625 248.828125 C-166.53755966 244.0027408 -166.62155775 239.17727832 -166.69921875 234.3515625 C-176.48981312 234.26381069 -183.7372151 237.35151512 -190.69921875 244.3515625 Z M117.30078125 234.3515625 C117.3164917 235.47651123 117.33220215 236.60145996 117.34838867 237.76049805 C117.40279341 241.94434415 117.43716961 246.12815912 117.46557617 250.31225586 C117.4806388 252.12122867 117.50109302 253.9301651 117.52709961 255.73901367 C117.56359445 258.34302765 117.58053282 260.9465577 117.59375 263.55078125 C117.60923386 264.35617844 117.62471771 265.16157562 117.64067078 265.99137878 C117.64204555 270.60491811 117.32895544 273.63141921 114.30078125 277.3515625 C112.54248047 278.74194336 112.54248047 278.74194336 110.60546875 279.81640625 C109.89318115 280.22133301 109.18089355 280.62625977 108.44702148 281.04345703 C107.32275757 281.66003174 107.32275757 281.66003174 106.17578125 282.2890625 C104.64210383 283.15817341 103.10954147 284.02925508 101.578125 284.90234375 C100.84190918 285.3195166 100.10569336 285.73668945 99.34716797 286.16650391 C95.53892087 288.37185244 91.9028563 290.82703127 88.30078125 293.3515625 C88.6371097 296.18283655 89.0357084 297.14022761 91.3046875 298.94921875 C102.38027013 305.29020117 111.45065262 308.59420274 124.36328125 305.2890625 C135.71225409 301.3479401 142.93211192 294.82270984 148.390625 284.23828125 C152.016911 275.3647427 151.63472715 264.72879561 148.17578125 255.9140625 C143.3554279 245.91082227 137.76242775 239.74928928 127.27734375 235.5390625 C123.89184905 234.47462748 120.81752806 234.29185542 117.30078125 234.3515625 Z M-134.69921875 280.3515625 C-131.70565043 282.77471329 -128.8224393 284.99156975 -125.4609375 286.875 C-124.24857422 287.55997559 -124.24857422 287.55997559 -123.01171875 288.25878906 C-122.14546875 288.7431543 -121.27921875 289.22751953 -120.38671875 289.7265625 C-118.5046658 290.79070771 -116.62317801 291.85585294 -114.7421875 292.921875 C-113.75782715 293.47907227 -112.7734668 294.03626953 -111.75927734 294.61035156 C-106.55257831 297.57302729 -101.3741987 300.58390842 -96.19921875 303.6015625 C-94.67071289 304.49270752 -94.67071289 304.49270752 -93.11132812 305.40185547 C-86.82461741 309.07869723 -80.60805073 312.84566713 -74.42578125 316.6953125 C-70.87295586 318.85347578 -67.23680482 320.82858756 -63.57421875 322.79296875 C-60.27740194 324.58023765 -57.01635557 326.42654659 -53.76171875 328.2890625 C-52.88132935 328.79191772 -52.88132935 328.79191772 -51.9831543 329.30493164 C-47.02712198 332.14446028 -42.11758331 335.06024463 -37.22265625 338.00390625 C-34.96864046 339.20767629 -33.16145125 339.79587976 -30.69921875 340.3515625 C-30.45131353 334.90756387 -30.27026983 329.46686842 -30.14990234 324.01855469 C-30.09972203 322.16738661 -30.0315548 320.31661285 -29.94482422 318.46679688 C-29.00740462 308.13086806 -29.00740462 308.13086806 -32.62695312 298.96826172 C-35.26057229 297.38161411 -37.80212481 296.36984053 -40.69921875 295.3515625 C-42.35912953 294.43513659 -44.00073302 293.48466815 -45.62109375 292.5 C-48.04802841 291.10421851 -50.47639697 289.7110074 -52.90625 288.3203125 C-53.69902344 287.86398437 -54.49179688 287.40765625 -55.30859375 286.9375 C-56.35998535 286.33494385 -56.35998535 286.33494385 -57.43261719 285.72021484 C-59.69921875 284.3515625 -59.69921875 284.3515625 -62.4024353 282.29440308 C-66.21632889 280.04682226 -68.32380186 279.86529571 -72.71435547 279.89746094 C-73.388228 279.89687683 -74.06210052 279.89629272 -74.75639343 279.89569092 C-76.96443786 279.8984583 -79.17110027 279.9294826 -81.37890625 279.9609375 C-82.91732038 279.96840477 -84.45574407 279.97409541 -85.99417114 279.97808838 C-90.02871301 279.99330669 -94.06267208 280.03255472 -98.09698486 280.0769043 C-102.21952431 280.11793975 -106.34215861 280.13611698 -110.46484375 280.15625 C-118.54323517 280.19905353 -126.62115431 280.26725768 -134.69921875 280.3515625 Z M-6.9961853 293.57907104 C-9.55763858 295.2587225 -12.11118233 296.53607164 -14.87817383 297.83618164 C-17.03854949 298.92024483 -17.03854949 298.92024483 -18.69921875 300.3515625 C-19.59093151 303.54000018 -19.85104449 305.19874774 -19.69921875 308.3515625 C-19.70638916 309.62064453 -19.71355957 310.88972656 -19.72094727 312.19726562 C-19.67381592 313.49599609 -19.62668457 314.79472656 -19.578125 316.1328125 C-19.55451401 316.83176636 -19.53090302 317.53072021 -19.50657654 318.25085449 C-19.43089565 320.4513483 -19.34647035 322.65140135 -19.26171875 324.8515625 C-19.20840191 326.35675031 -19.15566245 327.8619587 -19.10351562 329.3671875 C-18.97541309 333.02890713 -18.8394744 336.69028588 -18.69921875 340.3515625 C-15.26430452 339.26578414 -12.08217223 338.17978912 -8.9765625 336.34765625 C-8.28771973 335.94522705 -7.59887695 335.54279785 -6.88916016 335.12817383 C-6.14585449 334.68626709 -5.40254883 334.24436035 -4.63671875 333.7890625 C-3.83669434 333.31944092 -3.03666992 332.84981934 -2.21240234 332.3659668 C-0.40153061 331.30250595 1.4079518 330.23667709 3.21630859 329.16894531 C6.65172524 327.14478499 10.09481977 325.13408811 13.5390625 323.125 C15.4529474 322.00744202 17.36664889 320.88957086 19.28024292 319.77151489 C20.52304077 319.04542066 21.76597622 318.31956187 23.00906372 317.59396362 C29.37210098 313.87734566 35.70162817 310.12192056 41.96484375 306.23828125 C47.82435165 302.61352727 53.7817432 299.20278382 59.80078125 295.8515625 C72.2661805 288.95817023 72.2661805 288.95817023 84.30078125 281.3515625 C84.30078125 281.0215625 84.30078125 280.6915625 84.30078125 280.3515625 C76.03218728 279.99819922 67.76692715 279.73469985 59.4925642 279.57437992 C55.64664178 279.49728073 51.80600906 279.39351919 47.96313477 279.2199707 C26.01181676 278.25507822 11.3242413 280.93161553 -6.9961853 293.57907104 Z M2.3671875 342.81640625 C1.77405258 343.1691713 1.18091766 343.52193634 0.56980896 343.88539124 C-1.33359859 345.01789488 -3.23522678 346.15334601 -5.13671875 347.2890625 C-7.03493858 348.42069817 -8.93352254 349.5517167 -10.83253479 350.68202209 C-12.55891403 351.70990715 -14.28424162 352.73955786 -16.00952148 353.76928711 C-20.34951211 356.32238498 -23.67449039 356.94352314 -28.69921875 356.3515625 C-32.05078125 354.8828125 -32.05078125 354.8828125 -35.32421875 352.8515625 C-36.53116426 352.12355574 -37.73819831 351.39569577 -38.9453125 350.66796875 C-39.55874512 350.28914551 -40.17217773 349.91032227 -40.80419922 349.52001953 C-43.97311234 347.56608779 -47.17480154 345.67118359 -50.38671875 343.7890625 C-50.97469238 343.43070312 -51.56266602 343.07234375 -52.16845703 342.703125 C-53.63524128 341.84066445 -55.16454098 341.08644913 -56.69921875 340.3515625 C-57.68921875 340.6815625 -58.67921875 341.0115625 -59.69921875 341.3515625 C-62.74352 348.27042897 -60.24526901 356.40857177 -58.03125 363.16015625 C-56.02298985 367.97173556 -53.26484805 371.58871919 -49.69921875 375.3515625 C-48.39984375 376.74375 -48.39984375 376.74375 -47.07421875 378.1640625 C-39.33694007 384.09048872 -28.10897216 385.549392 -18.69921875 384.3515625 C-8.31270722 382.14083146 -0.33332552 377.51941954 5.73828125 368.7265625 C10.3292895 361.48035574 12.02832696 353.87907505 11.30078125 345.3515625 C10.40281012 341.98334978 10.40281012 341.98334978 9.30078125 339.3515625 C7.00841607 339.3515625 4.21286999 341.71556892 2.3671875 342.81640625 Z " fill="#381C98" transform="translate(274.69921875,56.6484375)"/>
<path d="M0 0 C0.66 0 1.32 0 2 0 C1.24964259 3.11799003 0.36636589 6.18070403 -0.5625 9.25 C-0.83191406 10.14203125 -1.10132813 11.0340625 -1.37890625 11.953125 C-1.58386719 12.62859375 -1.78882813 13.3040625 -2 14 C-2.66 14 -3.32 14 -4 14 C-3.53328373 8.58609132 -2.75702189 4.79482068 0 0 Z " fill="#2A168D" transform="translate(208,73)"/>
<path d="M0 0 C0 0.66 0 1.32 0 2 C-1.75 3.7265625 -1.75 3.7265625 -4 5.625 C-4.7425 6.25664062 -5.485 6.88828125 -6.25 7.5390625 C-6.8275 8.02117187 -7.405 8.50328125 -8 9 C-8.33 8.01 -8.66 7.02 -9 6 C-7.8803014 4.99406757 -6.7540588 3.9954151 -5.625 3 C-4.68527344 2.1646875 -4.68527344 2.1646875 -3.7265625 1.3125 C-2 0 -2 0 0 0 Z " fill="#231388" transform="translate(84,139)"/>
<path d="M0 0 C0.66 0 1.32 0 2 0 C1.64950425 3.24208567 1.43778819 4.61527704 -1.0625 6.8125 C-1.701875 7.204375 -2.34125 7.59625 -3 8 C-2.37240135 5.07120629 -1.41377341 2.63904371 0 0 Z " fill="#29158E" transform="translate(147,263)"/>
</svg>
