<svg viewBox="0 0 16 16" xmlns="http://www.w3.org/2000/svg">
  <defs>
    <!-- Vision Star - Primary telescope dome -->
    <radialGradient id="visionStar" cx="0.5" cy="0.5" r="0.7">
      <stop offset="0%" style="stop-color:#fef3c7"/>
      <stop offset="30%" style="stop-color:#fbbf24"/>
      <stop offset="70%" style="stop-color:#f59e0b"/>
      <stop offset="100%" style="stop-color:#d97706"/>
    </radialGradient>
    
    <!-- Knowledge Star - Foundation base -->
    <radialGradient id="knowledgeStar" cx="0.5" cy="0.5" r="0.7">
      <stop offset="0%" style="stop-color:#fef3c7"/>
      <stop offset="30%" style="stop-color:#f472b6"/>
      <stop offset="70%" style="stop-color:#e879f9"/>
      <stop offset="100%" style="stop-color:#c026d3"/>
    </radialGradient>
    
    <!-- Discovery Star - Secondary telescope -->
    <radialGradient id="discoveryStar" cx="0.5" cy="0.5" r="0.7">
      <stop offset="0%" style="stop-color:#ddd6fe"/>
      <stop offset="30%" style="stop-color:#8b5cf6"/>
      <stop offset="70%" style="stop-color:#7c3aed"/>
      <stop offset="100%" style="stop-color:#5b21b6"/>
    </radialGradient>
    
    <!-- Reflection Star - Processing chamber -->
    <radialGradient id="reflectionStar" cx="0.5" cy="0.5" r="0.7">
      <stop offset="0%" style="stop-color:#f0f9ff"/>
      <stop offset="30%" style="stop-color:#7dd3fc"/>
      <stop offset="70%" style="stop-color:#0ea5e9"/>
      <stop offset="100%" style="stop-color:#0369a1"/>
    </radialGradient>
    
    <!-- Structural beams -->
    <linearGradient id="beamGrad" x1="0%" y1="0%" x2="100%" y2="0%">
      <stop offset="0%" style="stop-color:#9ca3af"/>
      <stop offset="50%" style="stop-color:#d1d5db"/>
      <stop offset="100%" style="stop-color:#9ca3af"/>
    </linearGradient>
  </defs>
  
  <!-- Knowledge Star as Foundation Base Platform -->
  <g transform="translate(8,12.5)">
    <!-- Base platform rays as structural supports -->
    <path d="M0 -2.5 L0.4 -0.8 L0 0 L-0.4 -0.8 Z" fill="url(#knowledgeStar)" opacity="0.9"/>
    <path d="M2.5 0 L0.8 -0.4 L0 0 L0.8 0.4 Z" fill="url(#knowledgeStar)" opacity="0.9"/>
    <path d="M0 2.5 L-0.4 0.8 L0 0 L0.4 0.8 Z" fill="url(#knowledgeStar)" opacity="0.9"/>
    <path d="M-2.5 0 L-0.8 0.4 L0 0 L-0.8 -0.4 Z" fill="url(#knowledgeStar)" opacity="0.9"/>
    
    <!-- Platform surface -->
    <ellipse cx="0" cy="0" rx="2.8" ry="1.2" fill="url(#knowledgeStar)" opacity="0.7"/>
    <ellipse cx="0" cy="0" rx="2.2" ry="0.9" fill="#fef3c7" opacity="0.3"/>
    
    <!-- Central core -->
    <circle cx="0" cy="0" r="0.6" fill="#f472b6"/>
    <circle cx="0" cy="0" r="0.3" fill="#fef3c7"/>
  </g>
  
  <!-- Structural support beams connecting to main dome -->
  <rect x="6.8" y="9.5" width="0.4" height="2.8" fill="url(#beamGrad)" rx="0.2"/>
  <rect x="8.8" y="9.5" width="0.4" height="2.8" fill="url(#beamGrad)" rx="0.2"/>
  <path d="M7 9.8 Q8 9.2 9 9.8" stroke="url(#beamGrad)" stroke-width="0.3" fill="none"/>
  
  <!-- Vision Star as Main Observatory Dome -->
  <g transform="translate(8,7)">
    <!-- Dome structure with rays as architectural ribs -->
    <path d="M0 -3.5 L0.5 -1.2 L0 0 L-0.5 -1.2 Z" fill="url(#visionStar)" opacity="0.8"/>
    <path d="M3.5 0 L1.2 -0.5 L0 0 L1.2 0.5 Z" fill="url(#visionStar)" opacity="0.8"/>
    <path d="M0 3.5 L-0.5 1.2 L0 0 L0.5 1.2 Z" fill="url(#visionStar)" opacity="0.8"/>
    <path d="M-3.5 0 L-1.2 0.5 L0 0 L-1.2 -0.5 Z" fill="url(#visionStar)" opacity="0.8"/>
    
    <!-- Observatory dome surface -->
    <circle cx="0" cy="0" r="3.2" fill="url(#visionStar)" opacity="0.6"/>
    <circle cx="0" cy="0" r="2.4" fill="none" stroke="#fbbf24" stroke-width="0.1" opacity="0.5"/>
    <circle cx="0" cy="0" r="1.8" fill="none" stroke="#f59e0b" stroke-width="0.08" opacity="0.4"/>
    
    <!-- Central telescope lens -->
    <circle cx="0" cy="0" r="1.2" fill="#1e1b4b" opacity="0.8"/>
    <circle cx="0" cy="0" r="0.8" fill="#fbbf24"/>
    <circle cx="0" cy="0" r="0.4" fill="#fef3c7"/>
    
    <!-- Observation slit -->
    <rect x="-2.8" y="-0.15" width="5.6" height="0.3" fill="#1e1b4b" opacity="0.6" rx="0.15"/>
  </g>
  
  <!-- Discovery Star as Secondary Telescope Tower -->
  <g transform="translate(12,5.5)">
    <!-- Telescope tower rays as support struts -->
    <path d="M0 -2.2 L0.3 -0.7 L0 0 L-0.3 -0.7 Z" fill="url(#discoveryStar)" opacity="0.9"/>
    <path d="M2.2 0 L0.7 -0.3 L0 0 L0.7 0.3 Z" fill="url(#discoveryStar)" opacity="0.9"/>
    <path d="M0 2.2 L-0.3 0.7 L0 0 L0.3 0.7 Z" fill="url(#discoveryStar)" opacity="0.9"/>
    <path d="M-2.2 0 L-0.7 0.3 L0 0 L-0.7 -0.3 Z" fill="url(#discoveryStar)" opacity="0.9"/>
    
    <!-- Telescope housing -->
    <circle cx="0" cy="0" r="1.8" fill="url(#discoveryStar)" opacity="0.7"/>
    <rect x="-0.4" y="-2.2" width="0.8" height="2.2" fill="url(#discoveryStar)" rx="0.4"/>
    
    <!-- Telescope lens -->
    <circle cx="0" cy="-2.2" r="0.5" fill="#1e1b4b"/>
    <circle cx="0" cy="-2.2" r="0.3" fill="#8b5cf6"/>
    
    <!-- Core -->
    <circle cx="0" cy="0" r="0.6" fill="#ddd6fe"/>
    <circle cx="0" cy="0" r="0.3" fill="#8b5cf6"/>
  </g>
  
  <!-- Connection bridge to discovery tower -->
  <path d="M10.5 6.8 Q11.2 6.2 12 5.5" stroke="url(#beamGrad)" stroke-width="0.25" fill="none"/>
  <ellipse cx="11.2" cy="6.1" rx="0.8" ry="0.3" fill="url(#beamGrad)" opacity="0.6"/>
  
  <!-- Reflection Star as Data Processing Chamber -->
  <g transform="translate(4,8.5)">
    <!-- Processing chamber rays as data conduits -->
    <path d="M0 -1.8 L0.25 -0.6 L0 0 L-0.25 -0.6 Z" fill="url(#reflectionStar)" opacity="0.9"/>
    <path d="M1.8 0 L0.6 -0.25 L0 0 L0.6 0.25 Z" fill="url(#reflectionStar)" opacity="0.9"/>
    <path d="M0 1.8 L-0.25 0.6 L0 0 L0.25 0.6 Z" fill="url(#reflectionStar)" opacity="0.9"/>
    <path d="M-1.8 0 L-0.6 0.25 L0 0 L-0.6 -0.25 Z" fill="url(#reflectionStar)" opacity="0.9"/>
    
    <!-- Processing chamber -->
    <circle cx="0" cy="0" r="1.6" fill="url(#reflectionStar)" opacity="0.7"/>
    <circle cx="0" cy="0" r="1.1" fill="none" stroke="#7dd3fc" stroke-width="0.08" opacity="0.6"/>
    <circle cx="0" cy="0" r="0.7" fill="none" stroke="#0ea5e9" stroke-width="0.06" opacity="0.5"/>
    
    <!-- Processing core -->
    <circle cx="0" cy="0" r="0.5" fill="#f0f9ff"/>
    <circle cx="0" cy="0" r="0.25" fill="#7dd3fc"/>
  </g>
  
  <!-- Connection bridge to reflection chamber -->
  <path d="M5.8 8.2 Q6.8 7.8 8 7" stroke="url(#beamGrad)" stroke-width="0.25" fill="none"/>
  <ellipse cx="6.8" cy="7.8" rx="0.7" ry="0.25" fill="url(#beamGrad)" opacity="0.6"/>
  
  <!-- Energy flow indicators between stellar components -->
  <circle cx="9.5" cy="6" r="0.08" fill="#fbbf24" opacity="0.8">
    <animate attributeName="opacity" values="0.5;1;0.5" dur="2s" repeatCount="indefinite"/>
  </circle>
  <circle cx="6.5" cy="7.8" r="0.06" fill="#7dd3fc" opacity="0.9">
    <animate attributeName="opacity" values="0.4;0.9;0.4" dur="2.5s" repeatCount="indefinite"/>
  </circle>
  <circle cx="8" cy="9.8" r="0.07" fill="#f472b6" opacity="0.7">
    <animate attributeName="opacity" values="0.6;1;0.6" dur="1.8s" repeatCount="indefinite"/>
  </circle>
  
  <!-- Distant stars in the cosmic background -->
  <circle cx="1.5" cy="3" r="0.04" fill="#ffffff" opacity="0.8"/>
  <circle cx="14.5" cy="2" r="0.03" fill="#ffffff" opacity="0.9"/>
  <circle cx="2" cy="14" r="0.05" fill="#ffffff" opacity="0.7"/>
  <circle cx="15" cy="13" r="0.04" fill="#ffffff" opacity="0.8"/>
</svg>