<svg viewBox="0 0 16 16" xmlns="http://www.w3.org/2000/svg">
  <defs>
    <radialGradient id="leafGrad1" cx="0.3" cy="0.3" r="0.8">
      <stop offset="0%" style="stop-color:#7dd3fc;stop-opacity:1" />
      <stop offset="40%" style="stop-color:#22c55e;stop-opacity:1" />
      <stop offset="100%" style="stop-color:#15803d;stop-opacity:1" />
    </radialGradient>
    <radialGradient id="centerGlow" cx="0.5" cy="0.5" r="0.4">
      <stop offset="0%" style="stop-color:#fbbf24;stop-opacity:0.9" />
      <stop offset="70%" style="stop-color:#f59e0b;stop-opacity:0.6" />
      <stop offset="100%" style="stop-color:#d97706;stop-opacity:0.2" />
    </radialGradient>
  </defs>
  
  <!-- Main leaf shape with cosmic gradient -->
  <path d="M8 2C11.5 2 14 5.5 14 8.5C14 11.8 11.2 14 8 14C6.8 14 5.8 13.6 5 12.8C4 11.8 3.5 10.4 4 9C4.8 6.8 6.5 2 8 2Z" 
        fill="url(#leafGrad1)" stroke="none"/>
  
  <!-- Central observatory dome -->
  <circle cx="8" cy="8" r="2.5" fill="url(#centerGlow)" opacity="0.8"/>
  <circle cx="8" cy="8" r="1.8" fill="none" stroke="#fbbf24" stroke-width="0.3" opacity="0.7"/>
  
  <!-- Leaf vein as orbital path -->
  <path d="M8 4.5C8 4.5 9.5 6 10.5 8C9.5 10 8 11.5 8 11.5" 
        fill="none" stroke="#fbbf24" stroke-width="0.4" opacity="0.6"/>
  
  <!-- Star points around the observatory -->
  <circle cx="6" cy="6" r="0.4" fill="#fbbf24" opacity="0.8"/>
  <circle cx="10" cy="6.5" r="0.3" fill="#7dd3fc" opacity="0.9"/>
  <circle cx="9.5" cy="9.5" r="0.3" fill="#fbbf24" opacity="0.7"/>
  <circle cx="6.5" cy="9.8" r="0.2" fill="#7dd3fc" opacity="0.8"/>
  
  <!-- Small twinkling stars -->
  <circle cx="5.2" cy="7.5" r="0.15" fill="#ffffff" opacity="0.9"/>
  <circle cx="10.8" cy="8.2" r="0.15" fill="#ffffff" opacity="0.8"/>
</svg>