<svg viewBox="0 0 16 16" xmlns="http://www.w3.org/2000/svg">
  <defs>
    <linearGradient id="leafGrad3" x1="0.2" y1="0.2" x2="0.8" y2="0.9">
      <stop offset="0%" style="stop-color:#a7f3d0;stop-opacity:1" />
      <stop offset="30%" style="stop-color:#6ee7b7;stop-opacity:1" />
      <stop offset="70%" style="stop-color:#10b981;stop-opacity:1" />
      <stop offset="100%" style="stop-color:#047857;stop-opacity:1" />
    </linearGradient>
    <radialGradient id="observatoryDome" cx="0.5" cy="0.4" r="0.6">
      <stop offset="0%" style="stop-color:#fef3c7;stop-opacity:1" />
      <stop offset="40%" style="stop-color:#fbbf24;stop-opacity:0.9" />
      <stop offset="80%" style="stop-color:#92400e;stop-opacity:0.7" />
      <stop offset="100%" style="stop-color:#451a03;stop-opacity:0.5" />
    </radialGradient>
  </defs>
  
  <!-- Classic leaf silhouette -->
  <path d="M8 1.5C8 1.5 12.5 3 13.5 7.5C14 10 13 12 11.5 13C10.5 13.8 9.2 14.2 8 14.5C6.8 14.2 5.5 13.8 4.5 13C3 12 2 10 2.5 7.5C3.5 3 8 1.5 8 1.5Z" 
        fill="url(#leafGrad3)" stroke="none"/>
  
  <!-- Main observatory dome -->
  <ellipse cx="8" cy="7.5" rx="3.2" ry="2.8" fill="url(#observatoryDome)" opacity="0.85"/>
  
  <!-- Dome structural elements -->
  <ellipse cx="8" cy="7.5" rx="2.6" ry="2.2" fill="none" stroke="#f59e0b" stroke-width="0.15" opacity="0.6"/>
  <ellipse cx="8" cy="7.5" rx="1.8" ry="1.5" fill="none" stroke="#fbbf24" stroke-width="0.2" opacity="0.8"/>
  
  <!-- Central stem as observatory tower -->
  <line x1="8" y1="11" x2="8" y2="14.5" stroke="#047857" stroke-width="0.6" opacity="0.9"/>
  
  <!-- Leaf veins as energy conduits -->
  <path d="M8 4.5C6.5 5.5 5 7 4.8 8.5C5.2 10.2 6.8 11.5 8 12" 
        fill="none" stroke="#34d399" stroke-width="0.25" opacity="0.6"/>
  <path d="M8 4.5C9.5 5.5 11 7 11.2 8.5C10.8 10.2 9.2 11.5 8 12" 
        fill="none" stroke="#34d399" stroke-width="0.25" opacity="0.6"/>
  
  <!-- Celestial bodies orbiting -->
  <circle cx="5.5" cy="6.5" r="0.3" fill="#60a5fa" opacity="0.9"/>
  <circle cx="10.5" cy="6.8" r="0.25" fill="#f472b6" opacity="0.8"/>
  <circle cx="9.8" cy="9.2" r="0.2" fill="#a78bfa" opacity="0.9"/>
  <circle cx="6.2" cy="8.8" r="0.35" fill="#fbbf24" opacity="0.8"/>
  
  <!-- Observatory beacon -->
  <circle cx="8" cy="6.5" r="0.4" fill="#fef3c7" opacity="1"/>
  <circle cx="8" cy="6.5" r="0.2" fill="#f59e0b" opacity="0.9"/>
  
  <!-- Twinkling atmosphere -->
  <circle cx="4.5" cy="5" r="0.08" fill="#ffffff" opacity="1"/>
  <circle cx="11.5" cy="5.5" r="0.08" fill="#ffffff" opacity="0.9"/>
  <circle cx="10.2" cy="10.5" r="0.08" fill="#ffffff" opacity="0.8"/>
  <circle cx="5.8" cy="10.2" r="0.08" fill="#ffffff" opacity="0.9"/>
</svg>