<svg viewBox="0 0 16 16" xmlns="http://www.w3.org/2000/svg">
  <defs>
    <!-- Vision Star - Primary telescope star -->
    <radialGradient id="visionStar" cx="0.5" cy="0.5" r="0.6">
      <stop offset="0%" style="stop-color:#fef3c7"/>
      <stop offset="30%" style="stop-color:#fbbf24"/>
      <stop offset="70%" style="stop-color:#f59e0b"/>
      <stop offset="100%" style="stop-color:#d97706"/>
    </radialGradient>
    
    <!-- Knowledge Star - Warm amber wisdom -->
    <radialGradient id="knowledgeStar" cx="0.5" cy="0.5" r="0.6">
      <stop offset="0%" style="stop-color:#fef3c7"/>
      <stop offset="30%" style="stop-color:#f472b6"/>
      <stop offset="70%" style="stop-color:#e879f9"/>
      <stop offset="100%" style="stop-color:#c026d3"/>
    </radialGradient>
    
    <!-- Discovery Star - Dynamic exploration energy -->
    <radialGradient id="discoveryStar" cx="0.5" cy="0.5" r="0.6">
      <stop offset="0%" style="stop-color:#ddd6fe"/>
      <stop offset="30%" style="stop-color:#8b5cf6"/>
      <stop offset="70%" style="stop-color:#7c3aed"/>
      <stop offset="100%" style="stop-color:#5b21b6"/>
    </radialGradient>
    
    <!-- Reflection Star - Gentle contemplation -->
    <radialGradient id="reflectionStar" cx="0.5" cy="0.5" r="0.6">
      <stop offset="0%" style="stop-color:#f0f9ff"/>
      <stop offset="30%" style="stop-color:#7dd3fc"/>
      <stop offset="70%" style="stop-color:#0ea5e9"/>
      <stop offset="100%" style="stop-color:#0369a1"/>
    </radialGradient>
    
    <!-- Connection lines gradient -->
    <linearGradient id="constellation" x1="0%" y1="0%" x2="100%" y2="100%">
      <stop offset="0%" style="stop-color:#fbbf24"/>
      <stop offset="25%" style="stop-color:#f472b6"/>
      <stop offset="50%" style="stop-color:#8b5cf6"/>
      <stop offset="75%" style="stop-color:#7dd3fc"/>
      <stop offset="100%" style="stop-color:#fbbf24"/>
    </linearGradient>
  </defs>
  
  <!-- Constellation connecting lines (very subtle) -->
  <path d="M8 3.5 L12.5 7 L8 11.5 L3.5 7 Z" 
        stroke="url(#constellation)" 
        stroke-width="0.08" 
        fill="none" 
        opacity="0.3"/>
  
  <!-- Vision Star - Primary observation (top, largest) -->
  <g transform="translate(8,3)">
    <!-- Outer rays -->
    <path d="M0 -3.5 L0.5 -1.2 L0 0 L-0.5 -1.2 Z" fill="url(#visionStar)" opacity="0.8"/>
    <path d="M3.5 0 L1.2 -0.5 L0 0 L1.2 0.5 Z" fill="url(#visionStar)" opacity="0.8"/>
    <path d="M0 3.5 L-0.5 1.2 L0 0 L0.5 1.2 Z" fill="url(#visionStar)" opacity="0.8"/>
    <path d="M-3.5 0 L-1.2 0.5 L0 0 L-1.2 -0.5 Z" fill="url(#visionStar)" opacity="0.8"/>
    
    <!-- Inner star -->
    <path d="M0 -2.2 L0.35 -0.8 L0 0 L-0.35 -0.8 Z" fill="url(#visionStar)"/>
    <path d="M2.2 0 L0.8 -0.35 L0 0 L0.8 0.35 Z" fill="url(#visionStar)"/>
    <path d="M0 2.2 L-0.35 0.8 L0 0 L0.35 0.8 Z" fill="url(#visionStar)"/>
    <path d="M-2.2 0 L-0.8 0.35 L0 0 L-0.8 -0.35 Z" fill="url(#visionStar)"/>
    
    <!-- Core -->
    <circle cx="0" cy="0" r="0.8" fill="#fef3c7"/>
    <circle cx="0" cy="0" r="0.4" fill="#fbbf24"/>
  </g>
  
  <!-- Discovery Star - Exploration energy (right) -->
  <g transform="translate(13,8)">
    <!-- Outer rays -->
    <path d="M0 -3 L0.4 -1 L0 0 L-0.4 -1 Z" fill="url(#discoveryStar)" opacity="0.8"/>
    <path d="M3 0 L1 -0.4 L0 0 L1 0.4 Z" fill="url(#discoveryStar)" opacity="0.8"/>
    <path d="M0 3 L-0.4 1 L0 0 L0.4 1 Z" fill="url(#discoveryStar)" opacity="0.8"/>
    <path d="M-3 0 L-1 0.4 L0 0 L-1 -0.4 Z" fill="url(#discoveryStar)" opacity="0.8"/>
    
    <!-- Inner star -->
    <path d="M0 -2 L0.3 -0.7 L0 0 L-0.3 -0.7 Z" fill="url(#discoveryStar)"/>
    <path d="M2 0 L0.7 -0.3 L0 0 L0.7 0.3 Z" fill="url(#discoveryStar)"/>
    <path d="M0 2 L-0.3 0.7 L0 0 L0.3 0.7 Z" fill="url(#discoveryStar)"/>
    <path d="M-2 0 L-0.7 0.3 L0 0 L-0.7 -0.3 Z" fill="url(#discoveryStar)"/>
    
    <!-- Core -->
    <circle cx="0" cy="0" r="0.7" fill="#ddd6fe"/>
    <circle cx="0" cy="0" r="0.35" fill="#8b5cf6"/>
  </g>
  
  <!-- Reflection Star - Contemplation (bottom) -->
  <g transform="translate(8,13)">
    <!-- Outer rays -->
    <path d="M0 -3 L0.4 -1 L0 0 L-0.4 -1 Z" fill="url(#reflectionStar)" opacity="0.8"/>
    <path d="M3 0 L1 -0.4 L0 0 L1 0.4 Z" fill="url(#reflectionStar)" opacity="0.8"/>
    <path d="M0 3 L-0.4 1 L0 0 L0.4 1 Z" fill="url(#reflectionStar)" opacity="0.8"/>
    <path d="M-3 0 L-1 0.4 L0 0 L-1 -0.4 Z" fill="url(#reflectionStar)" opacity="0.8"/>
    
    <!-- Inner star -->
    <path d="M0 -2 L0.3 -0.7 L0 0 L-0.3 -0.7 Z" fill="url(#reflectionStar)"/>
    <path d="M2 0 L0.7 -0.3 L0 0 L0.7 0.3 Z" fill="url(#reflectionStar)"/>
    <path d="M0 2 L-0.3 0.7 L0 0 L0.3 0.7 Z" fill="url(#reflectionStar)"/>
    <path d="M-2 0 L-0.7 0.3 L0 0 L-0.7 -0.3 Z" fill="url(#reflectionStar)"/>
    
    <!-- Core -->
    <circle cx="0" cy="0" r="0.7" fill="#f0f9ff"/>
    <circle cx="0" cy="0" r="0.35" fill="#7dd3fc"/>
  </g>
  
  <!-- Knowledge Star - Wisdom (left) -->
  <g transform="translate(3,8)">
    <!-- Outer rays -->
    <path d="M0 -3 L0.4 -1 L0 0 L-0.4 -1 Z" fill="url(#knowledgeStar)" opacity="0.8"/>
    <path d="M3 0 L1 -0.4 L0 0 L1 0.4 Z" fill="url(#knowledgeStar)" opacity="0.8"/>
    <path d="M0 3 L-0.4 1 L0 0 L0.4 1 Z" fill="url(#knowledgeStar)" opacity="0.8"/>
    <path d="M-3 0 L-1 0.4 L0 0 L-1 -0.4 Z" fill="url(#knowledgeStar)" opacity="0.8"/>
    
    <!-- Inner star -->
    <path d="M0 -2 L0.3 -0.7 L0 0 L-0.3 -0.7 Z" fill="url(#knowledgeStar)"/>
    <path d="M2 0 L0.7 -0.3 L0 0 L0.7 0.3 Z" fill="url(#knowledgeStar)"/>
    <path d="M0 2 L-0.3 0.7 L0 0 L0.3 0.7 Z" fill="url(#knowledgeStar)"/>
    <path d="M-2 0 L-0.7 0.3 L0 0 L-0.7 -0.3 Z" fill="url(#knowledgeStar)"/>
    
    <!-- Core -->
    <circle cx="0" cy="0" r="0.7" fill="#fef3c7"/>
    <circle cx="0" cy="0" r="0.35" fill="#f472b6"/>
  </g>
  
  <!-- Subtle connecting energy flows -->
  <circle cx="10.2" cy="5.2" r="0.08" fill="#fbbf24" opacity="0.6">
    <animate attributeName="opacity" values="0.4;0.8;0.4" dur="3s" repeatCount="indefinite"/>
  </circle>
  <circle cx="10.2" cy="8.8" r="0.06" fill="#8b5cf6" opacity="0.7">
    <animate attributeName="opacity" values="0.5;0.9;0.5" dur="2.5s" repeatCount="indefinite"/>
  </circle>
  <circle cx="5.8" cy="8.8" r="0.07" fill="#7dd3fc" opacity="0.6">
    <animate attributeName="opacity" values="0.3;0.7;0.3" dur="2.8s" repeatCount="indefinite"/>
  </circle>
  <circle cx="5.8" cy="5.2" r="0.09" fill="#f472b6" opacity="0.5">
    <animate attributeName="opacity" values="0.4;0.8;0.4" dur="3.2s" repeatCount="indefinite"/>
  </circle>
  
  <!-- Distant cosmic dust -->
  <circle cx="1" cy="2" r="0.03" fill="#ffffff" opacity="0.8"/>
  <circle cx="15" cy="3" r="0.04" fill="#ffffff" opacity="0.6"/>
  <circle cx="2" cy="13" r="0.03" fill="#ffffff" opacity="0.7"/>
  <circle cx="14" cy="12" r="0.05" fill="#ffffff" opacity="0.9"/>
</svg>